inDegrees=no
num_controls=7
num_derivatives=13
num_iterations=182
num_multipliers=7
num_parameters=0
num_slacks=7
num_states=26
objective=5.077973
objective_accelerations=0.398902
objective_balance=0.007372
objective_effort=0.358123
objective_height=4.290109
objective_ligament=0.023466
solver_duration=1548.609674
status=Solve_Succeeded
success=true
DataType=double
version=3
OpenSimVersion=4.4-2022-07-23-0e9fedc
endheader
time	/jointset/ground_pelvis/pelvis_tilt/value	/jointset/ground_pelvis/pelvis_tx/value	/jointset/ground_pelvis/pelvis_ty/value	/jointset/hip_r/hip_flexion_r/value	/jointset/hip_r/hip_adduction_r/value	/jointset/hip_r/hip_rotation_r/value	/jointset/back/lumbar_extension/value	/jointset/patellofemoral_r/patellar_flexion_r/value	/jointset/knee_r/knee_flexion_r/value	/jointset/knee_r/knee_adduction_r/value	/jointset/knee_r/knee_rotation_r/value	/jointset/ankle_r/ankle_angle_r/value	/jointset/subtalar_r/subtalar_angle_r/value	/jointset/ground_pelvis/pelvis_tilt/speed	/jointset/ground_pelvis/pelvis_tx/speed	/jointset/ground_pelvis/pelvis_ty/speed	/jointset/hip_r/hip_flexion_r/speed	/jointset/hip_r/hip_adduction_r/speed	/jointset/hip_r/hip_rotation_r/speed	/jointset/back/lumbar_extension/speed	/jointset/patellofemoral_r/patellar_flexion_r/speed	/jointset/knee_r/knee_flexion_r/speed	/jointset/knee_r/knee_adduction_r/speed	/jointset/knee_r/knee_rotation_r/speed	/jointset/ankle_r/ankle_angle_r/speed	/jointset/subtalar_r/subtalar_angle_r/speed	/forceset/tau_hip_flexion_r	/forceset/tau_hip_adduction_r	/forceset/tau_hip_rotation_r	/forceset/tau_knee_flexion_r	/forceset/tau_ankle_angle_r	/forceset/tau_subtalar_angle_r	/forceset/tau_lumbar_extension	lambda_cid13_p0	lambda_cid14_p0	lambda_cid14_p1	lambda_cid14_p2	lambda_cid14_p3	lambda_cid14_p4	lambda_cid14_p5	/jointset/ground_pelvis/pelvis_tilt/accel	/jointset/ground_pelvis/pelvis_tx/accel	/jointset/ground_pelvis/pelvis_ty/accel	/jointset/hip_r/hip_flexion_r/accel	/jointset/hip_r/hip_adduction_r/accel	/jointset/hip_r/hip_rotation_r/accel	/jointset/back/lumbar_extension/accel	/jointset/patellofemoral_r/patellar_flexion_r/accel	/jointset/knee_r/knee_flexion_r/accel	/jointset/knee_r/knee_adduction_r/accel	/jointset/knee_r/knee_rotation_r/accel	/jointset/ankle_r/ankle_angle_r/accel	/jointset/subtalar_r/subtalar_angle_r/accel	gamma_cid13_p0	gamma_cid14_p0	gamma_cid14_p1	gamma_cid14_p2	gamma_cid14_p3	gamma_cid14_p4	gamma_cid14_p5
0.5	-0.06817942862124744	0.0517242758736054	0.8434852750587778	0.7050379957552138	-0.2138392387367792	-0.1608163202755986	-0.6263977630601113	0.8298232396627135	0.8298232396627269	-0.05504768007848977	0.1745091847571301	0.2852799619539377	0.1494066858620083	-0.1850862104839007	-0.1605260542512051	-0.3546956587075907	1.3685797610514	-0.01121914040589995	0.1152463953693299	-0.7431789262997719	1.605666605462642	1.605666605462609	-0.4335245150946272	-0.000531154168696429	0.5258492539575371	0.1979944514321287	-0.1522681272460398	0.00494600870749525	0.01588333208638031	-0.275393863548443	-0.01196636332300104	0.0002788815365743366	0.2113674437329872	-15.15654586744555	-46.67157043414315	-5.866289851030198	-1.137981893293362	-1.095404270839616	-646.3379762927983	65.32561051419526	0.1255521788454917	0.4009853548325583	-0.3040096065962705	-0.9709731230957386	-0.216090829631872	-0.5805082392897708	1.451124851993401	-1.114836618745064	-1.114836618745072	0.3550546771511071	-0.01652873822189406	-0.4011861710464791	-0.2830217987239639	-3.488774814311266e-08	-5.958863595623892e-08	-2.326581812478139e-08	-8.626053468825811e-07	3.431399725528893e-08	-1.228902284762599e-07	2.181467083986819e-07
0.51	-0.07002374815831824	0.05013924751748559	0.8399238795636966	0.7186733349736969	-0.2139626220226327	-0.1596913260755128	-0.633755992702614	0.8458221011220179	0.8458221011218822	-0.05936288459400898	0.1745026776022385	0.2905175131163147	0.1513713851346955	-0.1837452138125175	-0.1564619942844427	-0.3575049024924154	1.358296322034772	-0.01345065043477603	0.1097845722784189	-0.7283727428264825	1.593888156968541	1.593888156968498	-0.4294583438879346	-0.0007815380921941254	0.5215899433148977	0.1949132219072645	-0.157114550445435	0.005593593664684004	0.01622909817543895	-0.2793626029405675	-0.01335165287784319	0.001007815851146532	0.2161682574097945	-14.35473714819872	-47.30268019298133	-5.784280295758894	-1.009345662260018	-1.023557840004375	-649.8098228650891	65.81961801061675	0.1432393146450184	0.4117678231707432	-0.2576255358810905	-1.085802607792465	-0.2258000838069935	-0.5243096780398379	1.509504002439024	-1.241971676991678	-1.241971676993092	0.4410726429942093	-0.03115489311349974	-0.4489553486172596	-0.3256202477495899	-3.781037267039982e-08	-4.72515375290589e-08	9.472430469409404e-08	-7.377062256323528e-07	1.322366204013393e-08	-1.034411056398881e-07	2.604887120319773e-07
0.52	-0.07185368454804091	0.04859539006214629	0.8363367428764754	0.7322000851386306	-0.2141081442076233	-0.1586200081731712	-0.6409633327288971	0.8616966535538056	0.8616966535538183	-0.06363569253732662	0.1744932942735387	0.2957103408047172	0.153304282768458	-0.1822095810065838	-0.1522918740951054	-0.3598438971355345	1.346861950344323	-0.01564692023529441	0.1045111358255025	-0.7130010030553995	1.580804799984487	1.580804799984435	-0.4250452006585653	-0.001106388963617186	0.5169045591624628	0.1916341236470715	-0.1619609736447421	0.006241178621751018	0.01657486426607261	-0.2833313423324866	-0.01473694243271279	0.001736750165515462	0.2209690710866837	-13.55100758598827	-47.93686057308083	-5.701543058292793	-0.8822707839568978	-0.9689594772988148	-653.3326241298981	66.35916540805196	0.1644794057568262	0.4221973993467601	-0.2099597782552152	-1.201159657859828	-0.2090427839603634	-0.5428309116913971	1.564236111552785	-1.375818316735459	-1.375818316735416	0.4244490816863461	-0.03142212780610777	-0.4864008730065273	-0.3225955457903222	-4.652122312006914e-08	-1.578570303671418e-08	4.318507171179737e-07	-3.95685890571256e-07	-4.193063965140697e-08	-6.550272519810672e-08	3.953039453948806e-07
0.53	-0.07366729559027618	0.04709366712410749	0.8327285877846926	0.74560690162652	-0.2142752848529587	-0.1576019944832352	-0.648014290557707	0.877433784785316	0.8774337847856569	-0.06786397174515356	0.1744812476449094	0.3008541974437924	0.1552036616876522	-0.1804797655405784	-0.148044212344252	-0.3617064987103578	1.334321886358856	-0.01777315565858047	0.09913657918657251	-0.6971125885558792	1.566414118560613	1.566414118560653	-0.4205456395339011	-0.001318800542939554	0.5117921980658645	0.1882075208028543	-0.1668114326370004	0.00747118854319821	0.01692089643691096	-0.2870396914025155	-0.01645049093893334	0.002083073926926173	0.2257090972070455	-12.74731062930832	-48.71556166845664	-5.842646548232825	-0.6825373642361064	-0.7044893260402542	-656.842177264856	66.42292044837863	0.1821610766737535	0.42731155604457	-0.1623260857726416	-1.307349421302976	-0.2132012785038971	-0.5280929425725138	1.61284024301867	-1.501782003198458	-1.50178200318454	0.4725369878974696	-0.01855361619577148	-0.5348596537899399	-0.3577438447731131	-4.968344073313468e-08	5.994346084861754e-09	6.266750495024486e-07	-1.66565265715259e-07	-7.634857951469005e-08	-3.867583651713176e-08	4.702927005041122e-07
0.54	-0.07546262278594555	0.04563467300219332	0.8291042235294257	0.7588829335440818	-0.2144634453238892	-0.156636391340161	-0.6549040250167516	0.8930207914132792	0.8930207914132813	-0.07204528986981741	0.1744665963119116	0.3059446892867264	0.1570677643401984	-0.1785528116884386	-0.143746110870182	-0.3630857298323297	1.320705036276857	-0.01985088536173004	0.09402902644454054	-0.6807563291015836	1.550779879217333	1.550779879217464	-0.4156529840076883	-0.001627329850184726	0.5062315999371189	0.1845788703171859	-0.1716618916291189	0.008701198465085632	0.01726692860445388	-0.2907480404729936	-0.0181640394450839	0.00242939768900012	0.2304491233275177	-11.94628912463179	-49.49812860619439	-5.981624165373065	-0.4863435937542124	-0.4520471220209044	-660.4075901518393	66.51734573595431	0.2039070829848144	0.4322853439893345	-0.1132856876850247	-1.416516877166055	-0.199341639933695	-0.489430132312611	1.657805102508553	-1.624529900616615	-1.624529900616634	0.5030679619959834	-0.05064567338966666	-0.576048279436905	-0.3630050740812529	-4.670674542059598e-08	1.705820713665081e-08	6.640587826943886e-07	-6.23549585329911e-08	-8.782416161053867e-08	-2.414251318853843e-08	4.790904583965149e-07
0.55	-0.07723779394893694	0.04421892390527887	0.8254684986342018	0.7720175360646877	-0.2146720330102794	-0.1557211241501588	-0.661627922657414	0.9084452858832979	0.9084452858831493	-0.07617633880358428	0.1744487015790811	0.310977479135256	0.1588947826528047	-0.1764535315947524	-0.1393934620994392	-0.3639762416111826	1.306039127278322	-0.02185569704825098	0.08904496880996376	-0.6639567403376502	1.533917809930869	1.533917809930893	-0.4105127763036446	-0.001949797689262991	0.5002640542436149	0.1807990744591013	-0.1761434093109312	0.009113963972487505	0.01765206740363334	-0.2949752878239371	-0.0192794469282589	0.003081454826209832	0.2349173565888843	-11.15005518837642	-50.05734901601138	-5.920697224188409	-0.3540242510196709	-0.3909398793253357	-663.9562980829855	67.11827662943732	0.2171229940293525	0.4382727870934156	-0.06448602601814254	-1.518076731201081	-0.1993679662279131	-0.4998607264043948	1.701004568506764	-1.74721715185563	-1.747217151871534	0.5261913042507379	-0.02275428276387378	-0.6164771275713601	-0.3892179739550571	-4.351462498219201e-08	2.564314696539721e-08	6.845991117159657e-07	1.479223374799664e-08	-9.541241050200608e-08	-1.371558663640058e-08	4.85092110103324e-07
0.5600000000000001	-0.07899113540673014	0.04284700492476586	0.8218263582005823	0.7850001897312987	-0.2149003322201584	-0.1548550909660066	-0.6681818306494052	0.9236951253184793	0.9236951253184941	-0.08025464683432551	0.1744276407791478	0.3159487196441979	0.160683252780375	-0.1741868706421884	-0.1349800875898979	-0.3643688375114291	1.290315265479663	-0.02379319006342979	0.08418222528035675	-0.6467583993667894	1.515848872276637	1.515848872276555	-0.4051048034138821	-0.002260543272176599	0.4939217320195303	0.1768692333096539	-0.1806249269926608	0.009526729479806283	0.0180372062045065	-0.2992025351746627	-0.02039485441145614	0.00373351196326599	0.2393855898503238	-10.36033273910761	-50.61990805218537	-5.855616796439358	-0.2277784645317706	-0.3448111381162709	-667.569066988029	67.74747248836535	0.2373832547614219	0.4444304917483765	-0.01370251196378768	-1.628107437190668	-0.1858779056654385	-0.4651673113194268	1.737555543894584	-1.865903574169765	-1.865903574169773	0.5566209991397277	-0.0483012221555575	-0.6510035855537776	-0.3930141323545895	-4.006399439274973e-08	3.12533813264925e-08	6.84927355733108e-07	5.946368814744931e-08	-9.833585954821622e-08	-8.216336216009123e-09	4.877384343874211e-07
0.5700000000000001	-0.08072097115485607	0.04151944567393295	0.8181827837524184	0.7978204531276079	-0.2151476006332794	-0.1540370603323006	-0.6745618795204382	0.9387583643626001	0.9387583643625664	-0.08427767132433059	0.1744034650917669	0.3208546793444343	0.1624317689256093	-0.1717516276713415	-0.1305290186825538	-0.3642626918209311	1.273572461532779	-0.02564571170531947	0.07945922148150127	-0.629196622323972	1.496610230890129	1.496610230890032	-0.3994508565864218	-0.002582408504115769	0.4872079378762056	0.1728126326568815	-0.1850937385539778	0.01040942839202068	0.01835209726436743	-0.3031087907797946	-0.0218663154383832	0.004140069722566421	0.2437730958184624	-9.578668686819007	-51.31806784131599	-5.940112626523463	-0.05574082339026922	-0.1123674142900053	-671.0867778561037	68.01694010798855	0.2508950606778324	0.4458366747569485	0.0352761333236969	-1.722105754681932	-0.1826716456628044	-0.4706082640886763	1.773701662968906	-1.981142646359134	-1.98114264636113	0.5772568128176395	-0.02526216828662354	-0.6909291084398281	-0.4150702188555539	-3.848871932619287e-08	3.832245185309447e-08	7.226091186938534e-07	1.115799093860332e-07	-1.056070613459913e-07	-4.672165149978854e-09	5.175477623877095e-07
0.58	-0.08242559442481671	0.04023647542907807	0.814542771365912	0.810468340708196	-0.2154129407332393	-0.1532652080065814	-0.680764668045346	0.9536235573477456	0.9536235573477123	-0.08824266128838205	0.1743758441531205	0.3256916287472904	0.1641391016268939	-0.1691443750031321	-0.1260622863942925	-0.3636564251798414	1.255840102336125	-0.02740752743572424	0.07494656368582135	-0.6113063301413311	1.476239660484916	1.476239660484805	-0.3934978982282227	-0.002949593518953563	0.4801196725441502	0.1686325445193979	-0.1895625501151938	0.0112921273042569	0.01866698832452907	-0.3070150463848804	-0.02333777646531027	0.004546627481892083	0.2481606017866869	-8.810324195570793	-52.02017601949495	-6.021504120019705	0.1114672154419804	0.106847062851686	-674.6708684276419	68.30954732450398	0.2717851942349208	0.4475631679312393	0.08632167815449511	-1.826018487144807	-0.1677367233687347	-0.423098110685028	1.803258571859849	-2.092289377910478	-2.092289377910479	0.616423305287418	-0.05736517873420804	-0.7258978233006752	-0.4177116292975478	-3.935576773130068e-08	4.729140203710032e-08	8.089373249299866e-07	1.733916409267403e-07	-1.185404527737111e-07	-3.674143940790982e-09	5.82732164995129e-07
0.59	-0.08410330048319348	0.03899822510254095	0.8109113367947143	0.8229339966573029	-0.2156954468041588	-0.152537839056049	-0.6867870690572604	0.9682793945568132	0.9682793945568596	-0.09214691721107876	0.1743446482268616	0.330455860534893	0.1658040213959051	-0.166371027148424	-0.121587178774692	-0.3625463089898476	1.237131816322503	-0.02907845662346707	0.07056122426211296	-0.5931320632875913	1.454746350897038	1.454746350896951	-0.3873035085121695	-0.003292193204049405	0.4726692452348527	0.1643317742278479	-0.1937764772257868	0.01192711533046218	0.01896168339675677	-0.3110776302516979	-0.02461727509062869	0.005010993986346738	0.2523163869534435	-8.078205704565917	-52.64969641597931	-6.055671994714277	0.2603997382768374	0.3028351652771012	-678.1634436765503	68.72283386299868	0.2839862045049584	0.4475493546367261	0.1359829818490933	-1.917117308928068	-0.1644101146326222	-0.4411891557186637	1.830782086282765	-2.205058340611542	-2.205058340607998	0.6285247397518238	-0.02302669245491771	-0.7632572869699726	-0.4390455904215744	-3.801475903499339e-08	5.307346216849309e-08	8.381179273964143e-07	2.108888593100398e-07	-1.243014845962557e-07	-1.561969928752261e-09	6.099692782854951e-07
